<svg width="168" height="33" viewBox="0 0 168 33" fill="none" xmlns="http://www.w3.org/2000/svg">
<mask id="mask0_30_134" style="mask-type:luminance" maskUnits="userSpaceOnUse" x="0" y="0" width="168" height="33">
<path d="M167.895 0H0V33H167.895V0Z" fill="white"/>
</mask>
<g mask="url(#mask0_30_134)">
<path fill-rule="evenodd" clip-rule="evenodd" d="M25.7255 7.72716C25.7255 11.9952 22.2345 15.4552 17.9278 15.4552C13.621 15.4552 10.1299 11.9952 10.1299 7.72716C10.1299 3.46 13.621 0 17.9278 0C22.2345 0 25.7255 3.46 25.7255 7.72716ZM7.79793 17.3872C3.49128 17.3872 0 20.8462 0 25.1141C0 29.3819 3.49128 32.8416 7.79793 32.8416C12.1047 32.8416 15.5962 29.3819 15.5962 25.1141C15.5962 20.8462 12.1047 17.3872 7.79793 17.3872ZM28.0576 17.3865C23.7509 17.3865 20.2596 20.8462 20.2596 25.1141C20.2596 29.3819 23.7509 32.8416 28.0576 32.8416C32.3642 32.8416 35.8554 29.3819 35.8554 25.1141C35.8554 20.8462 32.3642 17.3865 28.0576 17.3865Z" fill="url(#paint0_radial_30_134)"/>
<path fill-rule="evenodd" clip-rule="evenodd" d="M63.2944 25.0226C63.3961 26.1689 64.3213 27.6282 65.9244 27.6282H66.8624C67.2259 27.6282 67.524 27.3328 67.524 26.9721V6.53024H67.5198C67.5009 6.18585 67.2138 5.91002 66.8624 5.91002H63.956C63.6045 5.91002 63.3173 6.18585 63.2979 6.53024H63.2944V8.19126C61.5136 6.01611 58.7059 5.11328 55.8906 5.11328C49.4911 5.11328 44.3032 10.2581 44.3032 16.6049C44.3032 22.9521 49.4911 28.0971 55.8906 28.0971V28.0976C58.7059 28.0976 61.7743 27.0145 63.2939 25.0201L63.2944 25.0226ZM55.9019 24.0752C51.8318 24.0752 48.5323 20.7309 48.5323 16.6049C48.5323 12.4797 51.8318 9.13527 55.9019 9.13527C59.9718 9.13527 63.271 12.4797 63.271 16.6049C63.271 20.7309 59.9718 24.0752 55.9019 24.0752Z" fill="#273347"/>
<path fill-rule="evenodd" clip-rule="evenodd" d="M110.647 25.0226C110.749 26.1689 111.674 27.6282 113.277 27.6282H114.215C114.579 27.6282 114.876 27.3328 114.876 26.9721V6.53024H114.873C114.854 6.18585 114.566 5.91002 114.215 5.91002H111.309C110.957 5.91002 110.67 6.18585 110.65 6.53024H110.647V8.19126C108.866 6.01611 106.059 5.11328 103.243 5.11328C96.8435 5.11328 91.6559 10.2581 91.6559 16.6049C91.6559 22.9521 96.8435 28.0971 103.243 28.0971V28.0976C106.059 28.0976 109.127 27.0145 110.647 25.0201L110.647 25.0226ZM103.254 24.0752C99.1845 24.0752 95.8848 20.7309 95.8848 16.6049C95.8848 12.4797 99.1845 9.13527 103.254 9.13527C107.324 9.13527 110.624 12.4797 110.624 16.6049C110.624 20.7309 107.324 24.0752 103.254 24.0752Z" fill="#273347"/>
<path fill-rule="evenodd" clip-rule="evenodd" d="M163.582 25.0226C163.683 26.1689 164.609 27.6282 166.212 27.6282H167.15C167.513 27.6282 167.811 27.3328 167.811 26.9721V6.53024H167.807C167.788 6.18585 167.501 5.91002 167.15 5.91002H164.243C163.892 5.91002 163.605 6.18585 163.585 6.53024H163.582V8.19126C161.801 6.01611 158.994 5.11328 156.178 5.11328C149.778 5.11328 144.59 10.2581 144.59 16.6049C144.59 22.9521 149.778 28.0971 156.178 28.0971V28.0976C158.994 28.0976 162.062 27.0145 163.581 25.0201L163.582 25.0226ZM156.189 24.0752C152.119 24.0752 148.819 20.7309 148.819 16.6049C148.819 12.4797 152.119 9.13527 156.189 9.13527C160.259 9.13527 163.559 12.4797 163.559 16.6049C163.559 20.7309 160.259 24.0752 156.189 24.0752Z" fill="#273347"/>
<path fill-rule="evenodd" clip-rule="evenodd" d="M140.917 25.7255L140.915 15.1478H140.916C140.916 9.18511 137.122 5.1626 131.074 5.1626C128.186 5.1626 125.819 6.81837 124.984 8.24076C124.803 7.12857 124.207 5.95952 122.361 5.95952H121.42C121.056 5.95952 120.759 6.25506 120.759 6.61565V25.0738V25.0765V27.0593H120.762C120.782 27.4032 121.069 27.6794 121.42 27.6794H124.327C124.371 27.6794 124.415 27.6741 124.457 27.6659C124.476 27.6622 124.494 27.6549 124.513 27.6496C124.535 27.643 124.557 27.6379 124.578 27.6294C124.603 27.6189 124.627 27.6045 124.651 27.5914C124.663 27.5841 124.675 27.579 124.686 27.5717C124.716 27.5531 124.742 27.5307 124.768 27.508C124.772 27.5036 124.777 27.5009 124.781 27.497C124.81 27.4692 124.837 27.4388 124.86 27.4071L124.86 27.4065C124.933 27.3075 124.977 27.1881 124.984 27.0593H124.988V14.9838C124.988 11.7814 127.606 9.18509 130.835 9.18509C134.065 9.18509 136.683 11.7814 136.683 14.9838L136.685 25.0774L136.686 25.0738C136.686 25.0827 136.688 25.0919 136.688 25.1015V27.0593H136.691C136.711 27.4032 136.998 27.6794 137.349 27.6794H140.256C140.301 27.6794 140.344 27.6741 140.386 27.6659C140.403 27.6629 140.419 27.656 140.436 27.6512C140.46 27.6446 140.484 27.6386 140.507 27.6294C140.531 27.6198 140.552 27.6061 140.575 27.5935C140.589 27.5859 140.603 27.5804 140.616 27.5717C140.643 27.554 140.668 27.533 140.692 27.5121C140.698 27.5066 140.705 27.5022 140.71 27.4965C140.738 27.4702 140.763 27.4417 140.785 27.412C140.787 27.4097 140.789 27.4078 140.79 27.4058C140.862 27.3075 140.906 27.189 140.913 27.0611C140.913 27.0602 140.914 27.0593 140.914 27.0593H140.918V25.726L140.917 25.7255Z" fill="#273347"/>
<path fill-rule="evenodd" clip-rule="evenodd" d="M74.4679 22.0947C76.4081 23.4277 78.526 24.0751 80.5612 24.0751C82.5003 24.0751 84.5047 23.0782 84.5047 21.3433C84.5047 19.0268 80.1367 18.6664 77.3926 17.7414C74.6477 16.8164 72.2837 14.9043 72.2837 11.8079C72.2837 7.06969 76.5408 5.11279 80.5141 5.11279C83.0315 5.11279 85.6292 5.93605 87.3131 7.11541C87.8931 7.55122 87.5398 8.05156 87.5398 8.05156L85.9324 10.3284C85.7517 10.5849 85.4358 10.8065 84.9824 10.5289C84.5288 10.2515 82.9382 9.13494 80.5141 9.13494C78.09 9.13494 76.6295 10.2452 76.6295 11.6214C76.6295 13.2716 78.5277 13.7906 80.7505 14.353C84.6244 15.3886 88.8505 16.6334 88.8505 21.3433C88.8505 25.5179 84.913 28.0979 80.5612 28.0979C77.2634 28.0979 74.4557 27.1656 72.1009 25.4517C71.6103 24.965 71.953 24.5128 71.953 24.5128L73.5526 22.2475C73.878 21.8239 74.2884 21.9717 74.4679 22.0947Z" fill="#273347"/>
</g>
<defs>
<radialGradient id="paint0_radial_30_134" cx="0" cy="0" r="1" gradientUnits="userSpaceOnUse" gradientTransform="translate(18.0248 18.9063) rotate(146.888) scale(15.3119 14.8232)">
<stop stop-color="#FFB900"/>
<stop offset="0.74709" stop-color="#FA5C86"/>
<stop offset="1" stop-color="#F95353"/>
</radialGradient>
</defs>
</svg>
