<svg width="1440" height="548" viewBox="0 0 1440 548" fill="none" xmlns="http://www.w3.org/2000/svg">
<g clip-path="url(#clip0_9_2057)">
<path d="M765.862 352.372H330.713V523.565H765.862V352.372Z" fill="#B0DDFF"/>
<path d="M748.275 508.739L886.875 548H1440V390.581C1352.1 387.804 1041.6 390.506 748.275 508.739Z" fill="#4C9D34"/>
<path d="M1128.71 276.477H945.788V432.244H1128.71V276.477Z" fill="#B0DDFF"/>
<path d="M870.337 497.329C965.855 497.329 1043.29 419.826 1043.29 324.221C1043.29 228.616 965.855 151.113 870.337 151.113C774.82 151.113 697.387 228.616 697.387 324.221C697.387 419.826 774.82 497.329 870.337 497.329Z" fill="#B0DDFF"/>
<path d="M223.072 192.805C333.493 192.805 423.008 282.401 423.008 392.923C423.008 503.445 333.494 517.973 223.072 517.973C112.651 517.973 23.1375 503.445 23.1375 392.923C23.1375 282.402 112.651 192.805 223.072 192.805Z" fill="#B0DDFF"/>
<path d="M566.523 242.696C658.563 242.696 733.176 311.072 733.176 395.416C733.176 479.761 658.563 516.396 566.523 516.396C474.483 516.396 399.87 479.762 399.87 395.416C399.87 311.071 474.484 242.696 566.523 242.696Z" fill="#B0DDFF"/>
<path d="M1224.51 516.396C1335.24 516.396 1425 426.55 1425 315.719C1425 204.889 1335.24 115.042 1224.51 115.042C1113.78 115.042 1024.01 204.889 1024.01 315.719C1024.01 426.55 1113.78 516.396 1224.51 516.396Z" fill="#B0DDFF"/>
<path d="M0.637512 391.032V548H553.763L692.363 509.189C399.038 390.957 88.5375 388.254 0.637512 391.032Z" fill="#4C9D34"/>
<path d="M632.663 61.3311H596.738V118.683H632.663V61.3311Z" fill="#F2451A"/>
<path d="M584.288 171.006V76.9453L626.363 119.059V171.006H584.288Z" fill="black"/>
<path d="M950.213 547.775L1403.44 547.625V547.775H950.213Z" fill="#1D74A0"/>
<path d="M1394.66 306.955C1394.66 306.955 708.413 516.096 720.938 521.501V544.247H770.663C770.888 544.397 771.188 544.472 771.413 544.622H544.913L941.438 547.775H1394.66V306.955Z" fill="#1D74A0"/>
<path d="M1269.64 228.509V161.097H1359.86V335.556L1404.41 380.147V548.376H1296.34L1269.64 228.509Z" fill="black"/>
<path d="M780.187 547.925C779.962 547.775 779.662 547.7 779.437 547.549H729.712V524.804C717.262 519.399 704.812 514.144 692.362 509.189L553.762 548L780.187 547.925Z" fill="#4C9D34"/>
<path d="M858.15 264.676L1119.26 205.087" stroke="black" stroke-width="2" stroke-miterlimit="10"/>
<path d="M397.537 548C397.912 545.298 397.837 542.745 397.462 540.118L406.537 537.491L404.062 529.008L394.912 531.635C392.812 526.981 389.587 522.852 385.312 519.624L389.887 511.292L382.162 507.013L377.587 515.345C372.637 513.469 367.387 512.943 362.362 513.619L359.812 504.46L351.337 506.938L353.962 516.096C349.312 518.198 345.112 521.426 341.887 525.705L333.637 521.126L329.362 528.858L337.612 533.437C335.812 538.166 335.212 543.196 335.737 548" stroke="white" stroke-width="2" stroke-miterlimit="10"/>
<path d="M374.287 89.2563L463.238 136.174" stroke="black" stroke-width="2" stroke-miterlimit="10"/>
<path d="M840.563 548L840.638 102.844H729.638V548" fill="#ED9D84"/>
<path d="M676.163 171.006H565.163V544.622H676.163V171.006Z" fill="#FFC44A"/>
<path d="M565.163 380.222L676.163 427.065V548H565.163C565.163 548 565.163 378.345 565.163 380.222Z" fill="#ED9D84"/>
<path d="M712.463 136.775C736.404 136.775 755.813 117.349 755.813 93.3852C755.813 69.4218 736.404 49.9956 712.463 49.9956C688.521 49.9956 669.113 69.4218 669.113 93.3852C669.113 117.349 688.521 136.775 712.463 136.775Z" fill="#1CD1CC" stroke="white" stroke-miterlimit="10"/>
<path d="M1002.04 196.979H891.038V548H1002.04V196.979Z" fill="#ED9D84"/>
<path d="M482.813 143.306L670.088 102.394" stroke="black" stroke-width="2" stroke-miterlimit="10"/>
<path d="M491.288 177.912C510.507 177.912 526.088 162.317 526.088 143.08C526.088 123.843 510.507 108.249 491.288 108.249C472.068 108.249 456.488 123.843 456.488 143.08C456.488 162.317 472.068 177.912 491.288 177.912Z" fill="#ED8484"/>
<path d="M355.913 105.772C369.83 105.772 381.113 94.479 381.113 80.5487C381.113 66.6184 369.83 55.3257 355.913 55.3257C341.995 55.3257 330.713 66.6184 330.713 80.5487C330.713 94.479 341.995 105.772 355.913 105.772Z" fill="#FFC44A"/>
<path d="M635.588 227.983C648.221 227.983 658.463 217.732 658.463 205.087C658.463 192.442 648.221 182.191 635.588 182.191C622.954 182.191 612.713 192.442 612.713 205.087C612.713 217.732 622.954 227.983 635.588 227.983Z" fill="black"/>
<path d="M691.313 131.22L641.635 192.591" stroke="black" stroke-width="2" stroke-miterlimit="10"/>
<path d="M813.038 120.41H772.388V161.097H813.038V120.41Z" stroke="white" stroke-miterlimit="10"/>
<path d="M774.038 319.566H757.688V335.931H774.038V319.566Z" stroke="white" stroke-miterlimit="10"/>
<path d="M781.012 154.341H751.012V184.368H781.012V154.341Z" stroke="white" stroke-miterlimit="10"/>
<path d="M822.862 213.72H808.612V227.983H822.862V213.72Z" stroke="white" stroke-miterlimit="10"/>
<path d="M581.512 221.452V548" stroke="black" stroke-width="2" stroke-miterlimit="10"/>
<path d="M661.763 436.898V548" stroke="black" stroke-width="2" stroke-miterlimit="10"/>
<path d="M627.262 321.819V548" stroke="black" stroke-width="2" stroke-miterlimit="10"/>
<path d="M604.762 273.7V548" stroke="black" stroke-width="2" stroke-miterlimit="10"/>
<path d="M645.263 380.672V548" stroke="black" stroke-width="2" stroke-miterlimit="10"/>
<path d="M645.262 78.2212L594.338 138.276V170.781H645.262V78.2212Z" fill="#2E99FF"/>
<path d="M815.663 54.1992H755.737V99.9159H815.663V54.1992Z" fill="black"/>
<path d="M982.763 205.087H966.413V221.452H982.763V205.087Z" stroke="white" stroke-width="2" stroke-miterlimit="9.9998"/>
<path d="M907.688 207.489H955.462" stroke="black" stroke-width="2" stroke-miterlimit="10"/>
<path d="M907.688 259.812H955.462" stroke="black" stroke-width="2" stroke-miterlimit="10"/>
<path d="M907.688 217.849H955.462" stroke="black" stroke-width="2" stroke-miterlimit="10"/>
<path d="M907.688 227.983H955.462" stroke="black" stroke-width="2" stroke-miterlimit="10"/>
<path d="M907.688 238.643H955.462" stroke="black" stroke-width="2" stroke-miterlimit="10"/>
<path d="M907.688 249.302H955.462" stroke="black" stroke-width="2" stroke-miterlimit="10"/>
<path d="M939.038 410.25H986.813" stroke="black" stroke-width="2" stroke-miterlimit="10"/>
<path d="M939.038 378.345H986.813" stroke="black" stroke-width="2" stroke-miterlimit="10"/>
<path d="M939.038 389.08H986.813" stroke="black" stroke-width="2" stroke-miterlimit="10"/>
<path d="M939.038 399.74H986.813" stroke="black" stroke-width="2" stroke-miterlimit="10"/>
<path d="M922.688 507.538H970.463" stroke="black" stroke-width="2" stroke-miterlimit="10"/>
<path d="M922.688 467.001H970.463" stroke="black" stroke-width="2" stroke-miterlimit="10"/>
<path d="M922.688 477.135H970.463" stroke="black" stroke-width="2" stroke-miterlimit="10"/>
<path d="M922.688 487.87H970.463" stroke="black" stroke-width="2" stroke-miterlimit="10"/>
<path d="M922.688 498.53H970.463" stroke="black" stroke-width="2" stroke-miterlimit="10"/>
<path d="M954.787 207.039V548" stroke="black" stroke-width="2" stroke-miterlimit="10"/>
<path d="M908.288 207.039V548" stroke="black" stroke-width="2" stroke-miterlimit="10"/>
<path d="M986.812 377.595V548" stroke="black" stroke-width="2" stroke-miterlimit="10"/>
<path d="M970.462 466.25V548" stroke="black" stroke-width="2" stroke-miterlimit="10"/>
<path d="M923.288 207.039V548" stroke="black" stroke-width="2" stroke-miterlimit="10"/>
<path d="M939.038 207.039V548" stroke="black" stroke-width="2" stroke-miterlimit="10"/>
<path d="M418.763 325.122V370.538C454.313 370.763 483.038 399.665 483.038 435.247C483.038 470.83 454.313 499.731 418.763 499.956V548H520.238V325.122H418.763Z" fill="black"/>
<path d="M450.713 432.244C450.713 414.528 436.463 400.115 418.763 399.89V464.599C436.463 464.449 450.713 450.035 450.713 432.244Z" fill="black" stroke="white" stroke-miterlimit="10"/>
<path d="M450.713 435.247C450.713 452.964 436.463 467.377 418.763 467.602V484.793C445.913 484.567 467.888 462.497 467.888 435.247C467.888 407.997 445.913 385.927 418.763 385.702V402.893C436.463 403.118 450.713 417.531 450.713 435.247Z" fill="black" stroke="white" stroke-width="2" stroke-miterlimit="10"/>
<path d="M792.713 349.594H780.188V362.13H792.713V349.594Z" stroke="white" stroke-miterlimit="10"/>
<path d="M778.938 459.602L770.082 468.467L778.938 477.331L787.795 468.467L778.938 459.602Z" stroke="white" stroke-miterlimit="9.9999"/>
<path d="M815.663 270.847V548" stroke="white" stroke-miterlimit="10"/>
<path d="M766.013 299.373V191.125" stroke="white" stroke-miterlimit="10"/>
<path d="M751.012 407.247V548" stroke="white" stroke-miterlimit="10"/>
<path d="M1137.04 221.452C1149.67 221.452 1159.91 211.201 1159.91 198.556C1159.91 185.911 1149.67 175.66 1137.04 175.66C1124.4 175.66 1114.16 185.911 1114.16 198.556C1114.16 211.201 1124.4 221.452 1137.04 221.452Z" fill="black"/>
<path d="M654.562 217.849L729.637 245.249" stroke="black" stroke-width="2" stroke-miterlimit="10"/>
<path d="M543.413 282.348H473.453V352.372H543.413V282.348Z" stroke="black" stroke-width="2.4387" stroke-miterlimit="10"/>
<path d="M418.163 469.328C437.051 469.328 452.363 454.002 452.363 435.097C452.363 416.192 437.051 400.866 418.163 400.866C399.274 400.866 383.963 416.192 383.963 435.097C383.963 454.002 399.274 469.328 418.163 469.328Z" fill="#F2451A"/>
<path d="M729.638 369.788V548.15H749.813V396.287C749.813 384.726 741.638 374.742 729.638 369.788Z" fill="#F2451A"/>
<path d="M1018.76 332.253H1052.59V234.364H1128.71V289.839H1200.41V338.559H1232.89V309.207H1253.81V327.749H1289.81" stroke="black" stroke-width="2" stroke-miterlimit="10"/>
<path d="M716.587 372.49C700.687 372.49 687.787 385.401 687.787 401.316V548.225H745.387V401.241C745.387 385.326 732.487 372.49 716.587 372.49Z" fill="#FFC651"/>
<path d="M716.587 372.49C700.687 372.49 687.787 385.401 687.787 401.316V548.225H729.637V375.568C725.737 373.616 721.312 372.49 716.587 372.49Z" fill="#2E99FF"/>
<path d="M718.988 422.636H713.213V548H718.988V422.636Z" fill="white"/>
<path d="M695.212 548H697.312V456.566L695.212 458.818V548Z" fill="white"/>
<path d="M1019.21 332.103V525.855" stroke="black" stroke-width="2" stroke-miterlimit="10"/>
<path d="M1073.21 371.964H1032.86V527.056H1002.04" stroke="white" stroke-width="2" stroke-miterlimit="10"/>
<path d="M845.963 297.872H870.338V497.479" stroke="black" stroke-width="2" stroke-miterlimit="10"/>
<path d="M720.187 303.126H676.237" stroke="black" stroke-width="2" stroke-miterlimit="10"/>
<path d="M36.1875 227.683H267.188V300.424H371.888L370.463 507.538" stroke="white" stroke-width="2" stroke-miterlimit="10"/>
<path d="M1149.49 411.676H1082.74V548H1149.49V411.676Z" fill="#1B3594"/>
<path d="M1144.39 416.855H1056.56V547.85H1144.39V416.855Z" fill="#1343A5"/>
<path d="M1082.74 325.873V411.676H1149.49V548H1184.21V325.873H1082.74Z" fill="#2E99FF"/>
<path d="M1082.74 416.855L1144.46 547.775V416.855H1082.74Z" fill="black"/>
<path d="M1090.24 428.416H1070.51L1070.89 547.85" stroke="black" stroke-width="2" stroke-miterlimit="10"/>
<path d="M1135.24 442.304H1083.71V547.625" stroke="white" stroke-width="2" stroke-miterlimit="10"/>
<path d="M1143.19 455.516H1097.59V548" stroke="white" stroke-width="2" stroke-miterlimit="10"/>
<path d="M1107.26 458.894V538.917L1144.09 538.091" stroke="black" stroke-width="2" stroke-miterlimit="10"/>
<path d="M1084.69 252.605H1076.06V261.238H1084.69V252.605Z" stroke="black" stroke-width="2" stroke-miterlimit="10"/>
<path d="M1069.69 281.882H1061.06V290.515H1069.69V281.882Z" stroke="black" stroke-width="2" stroke-miterlimit="10"/>
<path d="M1089.26 306.955H1080.64V315.588H1089.26V306.955Z" stroke="black" stroke-width="2" stroke-miterlimit="10"/>
<path d="M1189.54 302.076H1180.91V310.709H1189.54V302.076Z" stroke="black" stroke-width="2" stroke-miterlimit="10"/>
<path d="M891.038 373.916H840.637V547.324H891.038V373.916Z" fill="#17B4FF"/>
<path d="M840.637 374.592V548H891.038V517.672L840.637 374.592Z" fill="black"/>
<path d="M876.413 382.699H865.838V393.284H876.413V382.699Z" fill="#FF472E"/>
<path d="M1123.91 399.89C1135.8 399.89 1145.44 390.244 1145.44 378.345C1145.44 366.447 1135.8 356.801 1123.91 356.801C1112.02 356.801 1102.39 366.447 1102.39 378.345C1102.39 390.244 1112.02 399.89 1123.91 399.89Z" stroke="white" stroke-width="2" stroke-miterlimit="10"/>
<path d="M1258.31 276.477H1196.89V548.075H1258.31V276.477Z" fill="#FFC44A"/>
<path d="M1304.96 548.075V194.652L1257.19 242.471V548.075H1304.96Z" fill="#FFC44A"/>
<path d="M1207.09 255.608L1304.96 194.652L1258.31 384.2L1207.09 255.608Z" fill="#FFC44A"/>
<path d="M1258.31 387.053L1216.01 276.477L1258.84 405.895L1304.96 194.652L1258.31 387.053Z" fill="black"/>
<path d="M1318.31 517.673C1350.58 517.673 1376.74 491.491 1376.74 459.194C1376.74 426.897 1350.58 400.716 1318.31 400.716C1286.05 400.716 1259.89 426.897 1259.89 459.194C1259.89 491.491 1286.05 517.673 1318.31 517.673Z" fill="#ED9D84"/>
<path d="M1357.54 428.416C1362.22 428.416 1366.01 424.618 1366.01 419.933C1366.01 415.248 1362.22 411.45 1357.54 411.45C1352.86 411.45 1349.06 415.248 1349.06 419.933C1349.06 424.618 1352.86 428.416 1357.54 428.416Z" fill="white"/>
<path d="M1362.04 488.546C1364.94 488.546 1367.29 486.193 1367.29 483.291C1367.29 480.389 1364.94 478.036 1362.04 478.036C1359.14 478.036 1356.79 480.389 1356.79 483.291C1356.79 486.193 1359.14 488.546 1362.04 488.546Z" fill="white"/>
<path d="M1316.06 521.726V548" stroke="white" stroke-width="3" stroke-miterlimit="10"/>
<path d="M1316.4 537.755L1330.69 525.254" stroke="white" stroke-width="3" stroke-miterlimit="10"/>
<path d="M770.138 27.0244H766.013V54.1992H770.138V27.0244Z" fill="#22396B"/>
<path d="M806.287 27.0244H802.162V54.1992H806.287V27.0244Z" fill="#22396B"/>
<path d="M492.634 268.592C492.619 268.59 492.606 268.587 492.592 268.585C486.058 225.295 448.83 192.045 403.814 192.045C382.157 192.045 362.319 199.715 346.872 212.472C346.918 212.503 346.963 212.532 347.009 212.563C327.424 229.029 315.037 253.637 315.037 281.206C315.037 330.678 355.03 370.708 404.287 370.708C453.544 370.708 493.537 330.602 493.537 281.206C493.537 276.901 493.236 272.67 492.634 268.592Z" fill="#1CD1CC"/>
<path d="M158.362 420.308C158.362 419.182 158.288 417.981 158.288 416.855V416.705C156.413 386.978 131.812 363.481 101.662 363.481C71.5125 363.481 46.9125 386.978 45.0375 416.705H44.8875V547.699H158.288V423.761C158.288 422.635 158.362 421.434 158.362 420.308Z" fill="black"/>
<path d="M254.063 164.1H136.688V547.174H254.063V164.1Z" fill="#FFC44A"/>
<path d="M284.437 234.364H162.632V548H284.437V234.364Z" fill="#ED9D84"/>
<path d="M1385.51 351.246H1367.96V390.008H1385.51V351.246Z" fill="#4C9D34"/>
<path d="M79.1625 423.762C81.5625 419.483 86.2125 417.081 89.9625 413.928C92.1375 412.126 94.0125 410.024 95.8125 407.847C95.5125 407.922 95.2125 407.997 94.9125 407.997" stroke="black" stroke-width="2" stroke-miterlimit="10"/>
<path d="M64.0875 390.206C68.8875 394.635 75.2625 397.563 78.6375 403.193C78.2625 402.893 77.8875 402.592 77.5125 402.367" stroke="black" stroke-width="2" stroke-miterlimit="10"/>
<path d="M474.488 314.237H411.038V362.131" stroke="black" stroke-width="2" stroke-miterlimit="10"/>
<path d="M844.687 244.123C843.337 244.123 841.987 244.273 840.637 244.498V289.539C841.912 289.764 843.262 289.914 844.687 289.914C857.287 289.914 867.562 279.705 867.562 267.018C867.487 254.407 857.287 244.123 844.687 244.123Z" fill="white"/>
<path d="M821.813 267.019C821.813 278.279 829.913 287.587 840.638 289.539V244.498C829.913 246.375 821.813 255.758 821.813 267.019Z" fill="black"/>
<path d="M431.111 448.058C438.257 440.904 438.257 429.307 431.111 422.153C423.964 415 412.377 415 405.23 422.153C398.083 429.307 398.083 440.904 405.23 448.058C412.377 455.211 423.964 455.211 431.111 448.058Z" fill="white"/>
<path d="M1352.06 71.9907L1328.06 339.685H1377.86L1352.06 71.9907Z" fill="#1B3594"/>
<path d="M162.713 416.855H132.638L132.713 448.309H100.013V483.666H67.5375V520.975H37.0125V548H162.713V416.855Z" fill="#5B93FF"/>
<path d="M36.8625 548.075V520.976H66.7875V483.667H99.2625V448.309H131.963L131.888 416.856H162.188L162.713 385.702H189.788" stroke="white" stroke-width="2" stroke-miterlimit="10"/>
<path d="M225.232 338.957L178.405 366.019L225.803 448.188L272.631 421.127L225.232 338.957Z" stroke="white" stroke-width="2" stroke-miterlimit="9.9998"/>
<path d="M268.987 432.545H197.362V497.254H268.987V432.545Z" stroke="white" stroke-width="2" stroke-miterlimit="10"/>
<path d="M277.388 448.91H262.013V464.299H277.388V448.91Z" stroke="white" stroke-width="2" stroke-miterlimit="10"/>
<path d="M222.223 393.625L213.261 402.596L225.246 414.592L234.209 405.621L222.223 393.625Z" fill="white"/>
<path d="M236.813 502.358H231.713V544.772H236.813V502.358Z" stroke="white" stroke-width="2" stroke-miterlimit="10"/>
<path d="M211.559 329.559L202.864 353.392L232.099 364.077L240.794 340.245L211.559 329.559Z" stroke="white" stroke-width="1.9999" stroke-miterlimit="9.9997"/>
<path d="M220.537 288.563H205.162V303.953H220.537V288.563Z" stroke="white" stroke-width="2" stroke-miterlimit="10"/>
<path d="M210.93 503.185L200.166 511.088L208.063 521.862L218.827 513.959L210.93 503.185Z" fill="white"/>
<path d="M233.212 520.9H225.562V528.557H233.212V520.9Z" fill="white"/>
<path d="M214.653 530.367L212.959 534.377L216.965 536.073L218.659 532.063L214.653 530.367Z" fill="white"/>
<path d="M239.963 263.416H231.037V273.55H239.963V263.416Z" stroke="white" stroke-width="2" stroke-miterlimit="10"/>
<path d="M225.862 250.654H219.487V258.086H225.862V250.654Z" fill="white"/>
<path d="M181.645 151.912L168.474 169.891L184.259 181.475L197.429 163.497L181.645 151.912Z" stroke="black" stroke-width="1.9999" stroke-miterlimit="9.9996"/>
<path d="M231.227 176.613L219.317 179.978L224.919 199.845L236.829 196.481L231.227 176.613Z" stroke="black" stroke-width="2" stroke-miterlimit="9.9999"/>
<path d="M230.112 215.986L216.365 234.751L228.46 243.628L242.207 224.863L230.112 215.986Z" stroke="white" stroke-width="1.9999" stroke-miterlimit="9.9996"/>
<path d="M248.137 143.981H235.537V156.593H248.137V143.981Z" stroke="black" stroke-width="2" stroke-miterlimit="10"/>
<path d="M465.863 358.903C473.318 358.903 479.363 352.853 479.363 345.39C479.363 337.928 473.318 331.878 465.863 331.878C458.407 331.878 452.363 337.928 452.363 345.39C452.363 352.853 458.407 358.903 465.863 358.903Z" stroke="white" stroke-width="2" stroke-miterlimit="10"/>
<path d="M75.5625 411.751C83.0183 411.751 89.0625 405.701 89.0625 398.238C89.0625 390.776 83.0183 384.726 75.5625 384.726C68.1067 384.726 62.0625 390.776 62.0625 398.238C62.0625 405.701 68.1067 411.751 75.5625 411.751Z" fill="white"/>
<path d="M506.438 406.646C510.041 406.646 512.963 403.722 512.963 400.115C512.963 396.508 510.041 393.584 506.438 393.584C502.834 393.584 499.913 396.508 499.913 400.115C499.913 403.722 502.834 406.646 506.438 406.646Z" stroke="white" stroke-width="2" stroke-miterlimit="10"/>
<path d="M101.288 426.539C104.891 426.539 107.812 423.615 107.812 420.008C107.812 416.401 104.891 413.477 101.288 413.477C97.6838 413.477 94.7625 416.401 94.7625 420.008C94.7625 423.615 97.6838 426.539 101.288 426.539Z" stroke="white" stroke-width="2" stroke-miterlimit="10"/>
<path d="M62.2875 340.285H118.313L84.0375 28.3008L62.2875 340.285Z" fill="#1B3594"/>
<mask id="mask0_9_2057" style="mask-type:luminance" maskUnits="userSpaceOnUse" x="62" y="28" width="57" height="313">
<path d="M62.2875 340.285H118.313L84.0375 28.3008L62.2875 340.285Z" fill="white"/>
</mask>
<g mask="url(#mask0_9_2057)">
<path d="M53.1375 305.453L65.5875 317.915L76.6125 305.378L89.2875 319.491L100.913 305.604L114.563 321.518L126.863 305.453" stroke="#2E99FF" stroke-width="2" stroke-miterlimit="10"/>
</g>
<mask id="mask1_9_2057" style="mask-type:luminance" maskUnits="userSpaceOnUse" x="62" y="28" width="57" height="313">
<path d="M62.2875 340.285H118.313L84.0375 28.3008L62.2875 340.285Z" fill="white"/>
</mask>
<g mask="url(#mask1_9_2057)">
<path d="M53.1375 295.094L65.5875 307.631L76.6125 295.019L89.2875 309.132L100.913 295.244L114.563 311.159L126.863 295.094" stroke="#2E99FF" stroke-width="2" stroke-miterlimit="10"/>
</g>
<mask id="mask2_9_2057" style="mask-type:luminance" maskUnits="userSpaceOnUse" x="62" y="28" width="57" height="313">
<path d="M62.2875 340.285H118.313L84.0375 28.3008L62.2875 340.285Z" fill="white"/>
</mask>
<g mask="url(#mask2_9_2057)">
<path d="M49.3875 221.828L61.8375 234.289L72.8625 221.752L85.5375 235.865L97.1625 221.978L110.813 237.892L123.113 221.828" stroke="#2E99FF" stroke-width="2" stroke-miterlimit="10"/>
</g>
<mask id="mask3_9_2057" style="mask-type:luminance" maskUnits="userSpaceOnUse" x="62" y="28" width="57" height="313">
<path d="M62.2875 340.285H118.313L84.0375 28.3008L62.2875 340.285Z" fill="white"/>
</mask>
<g mask="url(#mask3_9_2057)">
<path d="M49.3875 213.72L61.8375 226.181L72.8625 213.645L85.5375 227.758L97.1625 213.87L110.813 229.785L123.113 213.72" stroke="#2E99FF" stroke-width="2" stroke-miterlimit="10"/>
</g>
<mask id="mask4_9_2057" style="mask-type:luminance" maskUnits="userSpaceOnUse" x="62" y="28" width="57" height="313">
<path d="M62.2875 340.285H118.313L84.0375 28.3008L62.2875 340.285Z" fill="white"/>
</mask>
<g mask="url(#mask4_9_2057)">
<path d="M44.8875 138.276L57.3375 150.738L68.4375 138.201L81.0375 152.314L92.7375 138.351L106.388 154.341L118.613 138.276" stroke="#2E99FF" stroke-width="2" stroke-miterlimit="10"/>
</g>
<mask id="mask5_9_2057" style="mask-type:luminance" maskUnits="userSpaceOnUse" x="62" y="28" width="57" height="313">
<path d="M62.2875 340.285H118.313L84.0375 28.3008L62.2875 340.285Z" fill="white"/>
</mask>
<g mask="url(#mask5_9_2057)">
<path d="M44.8875 130.319L57.3375 142.78L68.4375 130.169L81.0375 144.357L92.7375 130.394L106.388 146.309L118.613 130.319" stroke="#2E99FF" stroke-width="2" stroke-miterlimit="10"/>
</g>
<path d="M37.0125 508.664H57.0375V474.433H90.2625V438.625" stroke="#4C9D34" stroke-width="2" stroke-miterlimit="10"/>
<path d="M90.8625 439.376H120.263V365.434" stroke="#B0DDFF" stroke-width="2" stroke-miterlimit="10"/>
<mask id="mask6_9_2057" style="mask-type:luminance" maskUnits="userSpaceOnUse" x="1328" y="71" width="50" height="270">
<path d="M1352.06 71.9907L1328.06 340.736L1377.86 339.685L1352.06 71.9907Z" fill="white"/>
</mask>
<g mask="url(#mask6_9_2057)">
<path d="M1325.29 302.151L1356.79 327.749L1380.64 297.872" stroke="#2E99FF" stroke-width="2" stroke-miterlimit="10"/>
<path d="M1325.29 292.467L1356.79 318.066L1380.64 288.113" stroke="#2E99FF" stroke-width="2" stroke-miterlimit="10"/>
<path d="M1322.66 202.61L1354.24 228.208L1378.01 198.331" stroke="#2E99FF" stroke-width="2" stroke-miterlimit="10"/>
<path d="M1322.66 193.302L1354.24 218.9L1378.01 188.948" stroke="#2E99FF" stroke-width="2" stroke-miterlimit="10"/>
<path d="M1320.71 134.148L1352.29 159.746L1376.06 129.869" stroke="#2E99FF" stroke-width="2" stroke-miterlimit="10"/>
<path d="M1320.71 125.59L1352.29 151.113L1376.06 121.236" stroke="#2E99FF" stroke-width="2" stroke-miterlimit="10"/>
</g>
<path d="M1070.44 243.522H1080.19V251.404" stroke="white" stroke-width="2" stroke-miterlimit="10"/>
<path d="M1080.64 262.139V274.3" stroke="white" stroke-width="2" stroke-miterlimit="10"/>
<path d="M1185.11 300.875L1185.26 274.075H1064.81L1064.96 280.981" stroke="white" stroke-width="2" stroke-miterlimit="10"/>
<path d="M1119.26 321.969H1110.64V330.602H1119.26V321.969Z" stroke="black" stroke-width="2" stroke-miterlimit="10"/>
<path d="M1082.51 367.01H1073.89V375.643H1082.51V367.01Z" stroke="black" stroke-width="2" stroke-miterlimit="10"/>
<path d="M1084.31 274.601V305.679" stroke="white" stroke-width="2" stroke-miterlimit="10"/>
<path d="M1090.54 311.234H1114.84L1114.69 321.143" stroke="white" stroke-width="2" stroke-miterlimit="10"/>
<path d="M1114.61 331.578V371.439L1083.79 370.914" stroke="white" stroke-width="2" stroke-miterlimit="10"/>
<path d="M1099.69 238.643H1091.06V247.275H1099.69V238.643Z" stroke="black" stroke-width="2" stroke-miterlimit="10"/>
<path d="M1090.16 243.672H1079.96L1079.81 229.935" stroke="white" stroke-width="2" stroke-miterlimit="10"/>
<path d="M1084.16 221.452H1075.54V230.085H1084.16V221.452Z" stroke="black" stroke-width="2" stroke-miterlimit="10"/>
<path d="M420.733 441.271C424.139 439.859 425.756 435.951 424.345 432.542C422.935 429.133 419.03 427.514 415.624 428.926C412.218 430.338 410.6 434.246 412.011 437.656C413.422 441.065 417.327 442.683 420.733 441.271Z" stroke="black" stroke-width="2" stroke-miterlimit="10"/>
<path d="M345.938 491.398V486.819H341.063C340.688 484.117 339.563 481.564 337.988 479.463L341.438 476.009L338.213 472.781L334.763 476.235C332.663 474.658 330.188 473.607 327.413 473.232V468.277H322.838V473.232C320.138 473.607 317.588 474.658 315.488 476.235L312.038 472.781L308.813 476.009L312.263 479.463C310.688 481.564 309.638 484.042 309.188 486.819H304.313V491.398H309.188C309.563 494.176 310.613 496.653 312.188 498.755L308.738 502.208L311.963 505.436L315.338 502.058C317.438 503.635 319.988 504.761 322.688 505.136V509.94H327.263V505.136C330.038 504.761 332.513 503.635 334.613 502.058L337.988 505.436L341.213 502.208L337.763 498.755C339.338 496.653 340.388 494.101 340.763 491.398H345.938Z" stroke="white" stroke-width="2" stroke-miterlimit="10"/>
<path d="M984.187 183.993C978.487 183.167 973.237 180.915 968.812 177.612L961.687 184.743L955.012 177.987L962.137 170.856C958.837 166.427 956.662 161.172 955.837 155.467H945.712V145.933H955.837C956.662 140.228 958.912 135.048 962.212 130.694L955.012 123.488L961.687 116.731L968.887 123.938C973.237 120.635 978.487 118.458 984.112 117.632V107.423H989.737V93.3101H936.037C936.487 94.4361 936.862 95.6372 937.162 96.8383L945.037 96.1627L945.712 103.519L937.912 104.195C937.687 108.699 936.337 112.903 934.087 116.506L940.087 121.536L935.362 127.166L929.362 122.136C926.212 124.989 922.312 127.091 917.887 128.142L918.562 135.949L911.212 136.625L910.537 128.817C908.512 128.742 906.562 128.367 904.687 127.842V196.079H989.812V193.977H984.187V183.993Z" fill="#4C9D34"/>
<path d="M988.913 173.108C976.688 173.108 966.788 163.199 966.788 150.963C966.788 138.727 976.688 128.818 988.913 128.818C989.213 128.818 989.513 128.818 989.813 128.818V107.573H984.188V117.783C978.488 118.608 973.312 120.785 968.962 124.088L961.762 116.882L955.087 123.638L962.288 130.844C958.988 135.198 956.738 140.453 955.913 146.083H945.788V155.617H955.913C956.738 161.322 958.912 166.577 962.212 171.006L955.087 178.138L961.762 184.894L968.887 177.762C973.312 181.065 978.562 183.317 984.262 184.143V194.202H989.887V173.183C989.512 173.033 989.213 173.108 988.913 173.108Z" fill="#4C9D34"/>
<path d="M966.788 150.888C966.788 163.124 976.688 173.033 988.913 173.033C989.213 173.033 989.513 173.033 989.813 173.033V128.743C989.513 128.743 989.213 128.743 988.913 128.743C976.688 128.743 966.788 138.652 966.788 150.888Z" fill="#4C9D34"/>
<path d="M911.288 136.7L918.638 136.024L917.963 128.217C922.313 127.166 926.213 125.064 929.438 122.212L935.438 127.241L940.163 121.611L934.163 116.581C936.413 112.978 937.763 108.699 937.988 104.27L945.788 103.595L945.113 96.2379L937.238 96.9135C936.938 95.7124 936.563 94.5113 936.113 93.3853H926.288C927.863 95.7124 928.838 98.4148 929.138 101.418C929.963 110.876 922.988 119.284 913.538 120.11C910.388 120.41 907.388 119.809 904.763 118.608V127.917C906.638 128.442 908.588 128.818 910.613 128.893L911.288 136.7Z" fill="#4C9D34"/>
<path d="M904.762 118.608C907.387 119.809 910.387 120.41 913.537 120.11C922.987 119.284 930.037 110.876 929.137 101.418C928.912 98.4148 927.862 95.7124 926.287 93.3853H904.687L904.762 118.608Z" fill="#4C9D34"/>
<path d="M988.913 173.108C976.688 173.108 966.788 163.199 966.788 150.963C966.788 138.727 976.688 128.818 988.913 128.818C989.213 128.818 989.513 128.818 989.813 128.818V107.573H984.188V117.783C978.488 118.608 973.312 120.785 968.962 124.088L961.762 116.882L955.087 123.638L962.288 130.844C958.988 135.198 956.738 140.453 955.913 146.083H945.788V155.617H955.913C956.738 161.322 958.912 166.577 962.212 171.006L955.087 178.138L961.762 184.894L968.887 177.762C973.312 181.065 978.562 183.317 984.262 184.143V194.202H989.887V173.183C989.512 173.033 989.213 173.108 988.913 173.108Z" stroke="white" stroke-width="2" stroke-miterlimit="10"/>
<path d="M911.288 136.7L918.638 136.024L917.963 128.217C922.313 127.166 926.213 125.064 929.438 122.212L935.438 127.241L940.163 121.611L934.163 116.581C936.413 112.978 937.763 108.699 937.988 104.27L945.788 103.595L945.113 96.2379L937.238 96.9135C936.938 95.7124 936.563 94.5113 936.113 93.3853H926.288C927.863 95.7124 928.838 98.4148 929.138 101.418C929.963 110.876 922.988 119.284 913.538 120.11C910.388 120.41 907.388 119.809 904.763 118.608V127.917C906.638 128.442 908.588 128.818 910.613 128.893L911.288 136.7Z" stroke="white" stroke-width="2" stroke-miterlimit="10"/>
<path d="M1069.69 238.643H1061.06V247.275H1069.69V238.643Z" stroke="black" stroke-width="2" stroke-miterlimit="10"/>
<mask id="mask7_9_2057" style="mask-type:luminance" maskUnits="userSpaceOnUse" x="404" y="192" width="90" height="90">
<path d="M493.538 281.377H404.288V192.045C453.579 192.045 493.538 232.04 493.538 281.377Z" fill="white"/>
</mask>
<g mask="url(#mask7_9_2057)">
<path d="M412.121 289.15L413.151 189.554" stroke="#1B3594" stroke-width="2" stroke-miterlimit="10"/>
<path d="M425.978 287.06L427.008 195.721" stroke="#1B3594" stroke-width="2" stroke-miterlimit="10"/>
<path d="M438.5 287.224L439.53 197.388" stroke="#1B3594" stroke-width="2" stroke-miterlimit="10"/>
<path d="M450.394 292.835L451.285 200.43" stroke="#1B3594" stroke-width="2" stroke-miterlimit="10"/>
<path d="M462.875 294.802L463.737 204.929" stroke="#1B3594" stroke-width="2" stroke-miterlimit="10"/>
<path d="M474.611 298.226L475.336 206.344" stroke="#1B3594" stroke-width="2" stroke-miterlimit="10"/>
<path d="M485.261 300.288L485.819 214.388" stroke="#1B3594" stroke-width="2" stroke-miterlimit="10"/>
</g>
</g>
<defs>
<clipPath id="clip0_9_2057">
<rect width="1440" height="548" fill="white"/>
</clipPath>
</defs>
</svg>
