<svg width="160" height="25" viewBox="0 0 160 25" fill="none" xmlns="http://www.w3.org/2000/svg">
<path d="M9.22335 24.9998C15.2783 24.9998 18.3517 20.9063 18.3517 16.0887C18.3517 11.2711 12.3442 4.33046 12.3442 4.33046C12.3442 4.33046 9.70219 1.60355 9.21996 0.126465H9.12488C8.63586 1.60355 6.00062 4.33046 6.00062 4.33046C6.00062 4.33046 0 11.2711 0 16.0887C0 20.903 3.07672 24.9998 9.12828 24.9998H9.22335Z" fill="white"/>
<path d="M36.7032 24.8734C42.7581 24.8734 45.8316 20.7797 45.8316 15.9622C45.8316 11.1447 39.8242 4.20399 39.8242 4.20399C39.8242 4.20399 37.1821 1.47708 36.6999 0H36.6048C36.1191 1.47384 33.4805 4.20399 33.4805 4.20399C33.4805 4.20399 27.4764 11.1447 27.4764 15.9622C27.4764 20.7797 30.5533 24.8734 36.6048 24.8734H36.7032Z" fill="white"/>
<path d="M22.8885 24.9998C28.9436 24.9998 32.0169 20.9063 32.0169 16.0887C32.0169 11.2711 26.0095 4.33046 26.0095 4.33046C26.0095 4.33046 23.3674 1.60355 22.8853 0.126465H22.7901C22.3012 1.60355 19.6658 4.33046 19.6658 4.33046C19.6658 4.33046 13.6618 11.2711 13.6618 16.0887C13.6618 20.903 16.7386 24.9998 22.7901 24.9998H22.8885Z" fill="white"/>
<path fill-rule="evenodd" clip-rule="evenodd" d="M18.3517 16.0887C18.3517 20.9063 15.2783 24.9998 9.22335 24.9998H9.12828C3.07672 24.9998 0 20.903 0 16.0887C0 11.2711 6.00062 4.33046 6.00062 4.33046C6.00062 4.33046 8.63586 1.60355 9.12488 0.126465H9.21996C9.70219 1.60355 12.3442 4.33046 12.3442 4.33046C12.3442 4.33046 18.3517 11.2711 18.3517 16.0887ZM13.2544 17.2931C13.2544 19.361 11.8892 21.1172 9.20301 21.1172H9.15886C6.47268 21.1172 5.10752 19.361 5.10752 17.2931C5.10752 15.2284 7.77333 12.2483 7.77333 12.2483C7.77333 12.2483 8.9687 11.0049 9.15886 10.3037H9.20301C9.3932 11.0017 10.5886 12.2483 10.5886 12.2483C10.5886 12.2483 13.2544 15.2251 13.2544 17.2931Z" fill="#5FACCE"/>
<path fill-rule="evenodd" clip-rule="evenodd" d="M45.8316 15.9622C45.8316 20.7797 42.7581 24.8734 36.7032 24.8734H36.6048C30.5533 24.8734 27.4764 20.7797 27.4764 15.9622C27.4764 11.1447 33.4805 4.20399 33.4805 4.20399C33.4805 4.20399 36.1191 1.47384 36.6048 0H36.6999C37.1821 1.47708 39.8242 4.20399 39.8242 4.20399C39.8242 4.20399 45.8316 11.1447 45.8316 15.9622ZM40.7343 17.1666C40.7343 19.2345 39.3691 20.9908 36.6829 20.9908H36.6387C33.9525 20.9908 32.5873 19.2345 32.5873 17.1666C32.5873 15.0987 35.2532 12.1185 35.2532 12.1185C35.2532 12.1185 36.4486 10.8719 36.6387 10.174H36.6829C36.873 10.8719 38.0684 12.1185 38.0684 12.1185C38.0684 12.1185 40.7343 15.0987 40.7343 17.1666Z" fill="#F2DB13"/>
<path fill-rule="evenodd" clip-rule="evenodd" d="M32.0169 16.0887C32.0169 20.9063 28.9436 24.9998 22.8885 24.9998H22.7901C16.7386 24.9998 13.6618 20.903 13.6618 16.0887C13.6618 11.2711 19.6658 4.33046 19.6658 4.33046C19.6658 4.33046 22.3012 1.60355 22.7901 0.126465H22.8853C23.3674 1.60355 26.0095 4.33046 26.0095 4.33046C26.0095 4.33046 32.0169 11.2711 32.0169 16.0887ZM26.9196 17.2931C26.9196 19.361 25.5544 21.1172 22.8682 21.1172H22.8241C20.1378 21.1172 18.7727 19.361 18.7727 17.2931C18.7727 15.2284 21.4385 12.2483 21.4385 12.2483C21.4385 12.2483 22.6339 11.0049 22.8241 10.3037H22.8682C23.0583 11.0017 24.2537 12.2483 24.2537 12.2483C24.2537 12.2483 26.9196 15.2251 26.9196 17.2931Z" fill="#F29624"/>
<path d="M52.7864 3.01904H60.4341C63.4123 3.01904 65.6265 3.44107 67.0698 4.28837C68.5131 5.13566 69.2364 6.45042 69.2364 8.23915C69.2364 9.41432 68.9206 10.4174 68.2922 11.2485C67.664 12.0796 66.8321 12.6152 65.803 12.8522V12.995C67.1648 13.3391 68.1462 13.9137 68.7575 14.7156C69.3654 15.5174 69.671 16.5595 69.671 17.8418C69.671 19.7409 68.9239 21.2407 67.4297 22.3347C65.9354 23.4321 63.8979 23.9774 61.3205 23.9774H52.7864V3.01904ZM58.7089 11.0602H60.4918C61.3408 11.0602 61.9995 10.8914 62.4648 10.5603C62.9301 10.2259 63.161 9.72922 63.161 9.07021C63.161 7.89503 62.2306 7.30745 60.3696 7.30745H58.7055V11.0602H58.7089ZM58.7089 15.2058V19.6078H60.794C62.6448 19.6078 63.5685 18.8644 63.5685 17.3711C63.5685 16.6731 63.3206 16.1375 62.8248 15.7641C62.329 15.3908 61.6125 15.2058 60.6718 15.2058H58.7089Z" fill="#3E3E3E"/>
<path d="M88.1313 15.8196C88.1313 18.4783 87.3842 20.5495 85.8899 22.033C84.3957 23.5198 82.3037 24.2632 79.6143 24.2632C77.0366 24.2632 74.9822 23.5037 73.4609 21.9844C71.9361 20.4651 71.1753 18.4101 71.1753 15.8196C71.1753 13.1738 71.9225 11.1156 73.4166 9.64829C74.9109 8.18095 77.0061 7.44727 79.706 7.44727C81.3768 7.44727 82.8506 7.78813 84.1308 8.46338C85.4111 9.14187 86.3993 10.1158 87.0921 11.3818C87.7848 12.6511 88.1313 14.1315 88.1313 15.8196ZM77.1251 15.8196C77.1251 17.2155 77.3185 18.2771 77.7091 19.0108C78.0996 19.7412 78.7551 20.108 79.672 20.108C80.5821 20.108 81.2239 19.7412 81.6009 19.0108C81.9745 18.2802 82.1646 17.2155 82.1646 15.8196C82.1646 14.4334 81.9745 13.3881 81.594 12.6804C81.2137 11.9727 80.5652 11.6188 79.6448 11.6188C78.7449 11.6188 78.0996 11.9694 77.7091 12.6706C77.3185 13.3751 77.1251 14.4269 77.1251 15.8196Z" fill="#3E3E3E"/>
<path d="M100.971 23.9776V15.1184C100.971 14.0373 100.808 13.2225 100.482 12.6739C100.156 12.1252 99.6368 11.8493 98.9167 11.8493C97.9285 11.8493 97.2121 12.2259 96.7739 12.9823C96.3325 13.7387 96.1151 15.0339 96.1151 16.8681V23.9776H90.2504V7.73619H94.6753L95.4121 9.74242H95.7552C96.2544 8.97629 96.9471 8.40494 97.8336 8.02187C98.7164 7.63881 99.7352 7.44727 100.886 7.44727C102.764 7.44727 104.228 7.96669 105.274 9.00876C106.32 10.0508 106.843 11.5182 106.843 13.4075V23.9743H100.971V23.9776Z" fill="#3E3E3E"/>
<path d="M119.972 11.9366H116.358V23.9773H110.494V11.9366H108.245V9.18373L110.616 7.80729V7.5346C110.616 5.39526 111.074 3.85651 111.988 2.91831C112.905 1.98336 114.372 1.51265 116.392 1.51265C117.17 1.51265 117.907 1.56784 118.603 1.6847C119.296 1.79833 120.108 1.9996 121.024 2.28527L119.764 5.91142C119.045 5.71989 118.342 5.62574 117.649 5.62574C117.2 5.62574 116.871 5.7556 116.667 6.01856C116.46 6.28151 116.358 6.71003 116.358 7.30087V7.72937H119.972V11.9366ZM122.159 3.69418C122.159 2.85338 122.403 2.22684 122.892 1.81456C123.381 1.40552 124.172 1.19775 125.262 1.19775C126.353 1.19775 127.147 1.40877 127.646 1.82755C128.146 2.24632 128.397 2.86961 128.397 3.69093C128.397 5.33357 127.351 6.15816 125.262 6.15816C123.194 6.15816 122.159 5.33682 122.159 3.69418ZM128.173 23.9773H122.311V7.73587H128.173V23.9773Z" fill="#3E3E3E"/>
<path d="M141.281 7.4502C141.791 7.4502 142.276 7.48915 142.735 7.56382L143.064 7.62226L142.541 12.9105C142.062 12.7969 141.397 12.7385 140.548 12.7385C139.267 12.7385 138.337 13.0177 137.759 13.576C137.179 14.1344 136.89 14.9427 136.89 15.9913V23.974H131.025V7.73587H135.386L136.303 10.3297H136.588C137.077 9.46941 137.759 8.77471 138.636 8.2423C139.508 7.71315 140.391 7.4502 141.281 7.4502Z" fill="#3E3E3E"/>
<path d="M152.41 24.2632C149.581 24.2632 147.384 23.5459 145.818 22.1045C144.252 20.6663 143.471 18.6179 143.471 15.9624C143.471 13.2192 144.198 11.1156 145.645 9.64829C147.095 8.18095 149.163 7.44727 151.853 7.44727C154.413 7.44727 156.39 8.0868 157.785 9.35937C159.181 10.6352 159.877 12.4726 159.877 14.8716V17.3648H149.394C149.435 18.2738 149.781 18.9847 150.436 19.5009C151.092 20.017 151.985 20.2735 153.113 20.2735C154.142 20.2735 155.089 20.1794 155.955 19.9943C156.821 19.8092 157.758 19.4912 158.767 19.04V23.0686C157.846 23.5167 156.896 23.8283 155.918 24.0004C154.936 24.1788 153.768 24.2632 152.41 24.2632ZM152.063 11.2617C151.374 11.2617 150.796 11.4695 150.331 11.885C149.866 12.3005 149.594 12.953 149.513 13.8425H154.549C154.529 13.0602 154.298 12.4336 153.853 11.9662C153.411 11.4954 152.814 11.2617 152.063 11.2617Z" fill="#3E3E3E"/>
</svg>
