<svg width="160" height="47" viewBox="0 0 160 47" fill="none" xmlns="http://www.w3.org/2000/svg">
<path d="M13.0443 17.7894C15.8756 17.7894 17.7464 19.2044 18.5553 21.9839L24.5719 19.9624C23.9651 17.6377 22.7012 15.6668 20.6788 14.0496C18.6564 12.4324 16.0273 11.5732 12.8926 11.5732C9.25238 11.5732 6.16823 12.8367 3.69084 15.313C1.21342 17.8399 0 20.9732 0 24.7635C0 28.5538 1.21342 31.6871 3.74139 34.214C6.26936 36.7409 9.35347 37.9538 13.0949 37.9538C16.179 37.9538 18.7575 37.1453 20.7799 35.4775C22.8023 33.8602 24.1168 31.8893 24.7235 29.5645L18.8081 27.5936C18.4542 28.756 17.7969 29.7667 16.8868 30.5753C15.9262 31.3839 14.6622 31.7882 13.0949 31.7882C11.2747 31.7882 9.75794 31.1818 8.54452 29.9183C7.3311 28.6549 6.72441 26.9366 6.72441 24.7635C6.72441 22.6409 7.3311 20.9227 8.54452 19.6592C9.75794 18.4463 11.2242 17.7894 13.0443 17.7894ZM38.9518 31.8388C37.1824 31.8388 35.6656 31.2323 34.4522 29.9688C33.2389 28.756 32.6321 26.9872 32.6321 24.7635C32.6321 22.5399 33.2389 20.8216 34.4522 19.5582C35.6656 18.3453 37.1824 17.6883 38.9518 17.6883C40.671 17.6883 42.1878 18.3453 43.4011 19.5582C44.6145 20.8216 45.2718 22.5399 45.2718 24.7635C45.2718 26.9872 44.6145 28.756 43.4011 29.9688C42.1878 31.2323 40.671 31.8388 38.9518 31.8388ZM38.9518 11.5732C35.2105 11.5732 32.0759 12.8367 29.5985 15.313C27.1211 17.8399 25.9077 20.9732 25.9077 24.7635C25.9077 28.6043 27.1211 31.7377 29.5985 34.214C32.0759 36.7409 35.2105 37.9538 38.9518 37.9538C42.6932 37.9538 45.7776 36.7409 48.255 34.214C50.7324 31.7377 51.9964 28.6043 51.9964 24.7635C51.9964 20.9732 50.7324 17.8399 48.255 15.313C45.7776 12.8367 42.6932 11.5732 38.9518 11.5732ZM62.3856 46.7979V34.7699C63.8518 36.7915 66.2282 37.802 69.5651 37.802C73.0031 37.802 75.8345 36.5892 78.0085 34.1128C80.1825 31.6871 81.2947 28.5538 81.2947 24.713C81.2947 20.9227 80.2331 17.8399 78.2106 15.4141C76.1378 12.9883 73.3571 11.7754 69.8178 11.7754C67.9977 11.7754 66.4304 12.1291 65.1158 12.8367C63.7509 13.5442 62.7902 14.3528 62.1835 15.3636V12.3313H55.6611V46.7979H62.3856ZM74.6717 24.7635C74.6717 26.9366 74.065 28.6549 72.9019 29.9183C71.7391 31.1818 70.273 31.7882 68.5032 31.7882C66.6831 31.7882 65.217 31.1818 64.0542 29.8678C62.8405 28.6043 62.2844 26.8861 62.2844 24.7635C62.2844 22.6409 62.8405 20.9732 64.0542 19.7098C65.217 18.4463 66.6831 17.7894 68.5032 17.7894C70.273 17.7894 71.7391 18.4463 72.9019 19.6592C74.065 20.9227 74.6717 22.6409 74.6717 24.7635ZM93.5709 47L109.194 12.3313H102.014L95.8965 26.8861L89.2731 12.3313H81.7401L92.3069 34.0623L86.4421 47H93.5709Z" fill="#160647"/>
<path d="M111.54 32.5969C111.54 34.0204 112.033 35.1699 113.019 36.1556C114.005 37.141 115.155 37.579 116.524 37.579C117.894 37.579 119.098 37.141 120.084 36.1556C121.07 35.1699 121.563 34.0204 121.563 32.5969C121.563 31.2282 121.07 30.0785 120.084 29.093C119.098 28.1075 117.894 27.6147 116.524 27.6147C115.155 27.6147 114.005 28.1075 113.019 29.093C112.033 30.0785 111.54 31.2282 111.54 32.5969Z" fill="#47BAB7"/>
<path d="M125.337 30.4235C125.337 32.445 126.095 34.2137 127.662 35.6795C129.23 37.1956 131.303 37.9032 133.881 37.9032C137.168 37.9032 139.594 36.69 141.212 34.2137C141.212 35.4772 141.263 36.488 141.465 37.1956H147.633C147.431 36.0836 147.33 34.7699 147.33 33.2535V21.0236C147.33 18.2946 146.42 16.0204 144.701 14.2515C142.931 12.4827 140.201 11.5731 136.51 11.5731C133.376 11.5731 130.898 12.4322 129.028 14.0494C127.106 15.7171 126.044 17.6376 125.842 19.7601L131.808 21.0236C131.91 19.9117 132.364 18.9515 133.174 18.1429C133.982 17.3849 135.145 16.9806 136.561 16.9806C137.876 16.9806 138.937 17.2838 139.645 17.8903C140.353 18.4967 140.757 19.3053 140.757 20.215C140.757 21.2257 140.1 21.8322 138.887 21.9838L132.769 22.8934C130.544 23.2472 128.775 24.0558 127.41 25.3193C125.994 26.6332 125.337 28.301 125.337 30.4235ZM135.297 32.9C134.286 32.9 133.477 32.6471 132.92 32.0913C132.314 31.5353 132.061 30.8278 132.061 30.0192C132.061 28.2504 133.072 27.1891 135.145 26.8859L140.757 26.0268V27.1386C140.757 29.2106 140.201 30.6762 139.19 31.5859C138.179 32.4956 136.864 32.9 135.297 32.9ZM159.19 37.1956V12.3311H152.465V37.1956H159.19ZM151.656 4.19462C151.656 5.30643 152.06 6.26663 152.87 7.07523C153.678 7.88383 154.639 8.28813 155.802 8.28813C156.914 8.28813 157.926 7.88383 158.734 7.07523C159.543 6.26663 159.948 5.30643 159.948 4.19462C159.948 3.03225 159.543 2.0215 158.734 1.2129C157.926 0.404298 156.914 0 155.802 0C154.639 0 153.678 0.454836 152.87 1.26344C152.06 2.07204 151.656 3.08279 151.656 4.19462Z" fill="#160248"/>
</svg>
