<svg width="28" height="28" viewBox="0 0 28 28" fill="none" xmlns="http://www.w3.org/2000/svg">
<path d="M3.33333 0C1.50032 0 0 1.49984 0 3.33227V24.6588C0 26.4912 1.50032 27.9911 3.33333 27.9911H14.5547C14.6267 28.003 14.7001 28.003 14.7721 27.9911H18.5547C18.6267 28.003 18.7001 28.003 18.7721 27.9911H24.6667C26.4997 27.9911 28 26.4912 28 24.6588V3.33227C28 1.49984 26.4997 0 24.6667 0H3.33333ZM3.33333 1.33291H24.6667C25.779 1.33291 26.6667 2.2203 26.6667 3.33227V24.6588C26.6667 25.7708 25.779 26.6582 24.6667 26.6582H19.3333V17.3278H21.8802L22.8138 12.6626H19.3333V11.3297C19.3333 10.9582 19.3687 10.9291 19.4935 10.8481C19.6183 10.7671 20.0039 10.6633 20.6667 10.6633H22.6667V6.91056L22.2865 6.72963C22.2865 6.72963 20.7551 5.99809 18.6667 5.99809C17.1667 5.99809 15.9344 6.59553 15.1458 7.58092C14.3573 8.5663 14 9.88574 14 11.3297V12.6626H12V17.3278H14V26.6582H3.33333C2.22101 26.6582 1.33333 25.7708 1.33333 24.6588V3.33227C1.33333 2.2203 2.22101 1.33291 3.33333 1.33291ZM18.6667 7.331C20.0527 7.331 20.9249 7.63654 21.3333 7.7983V9.33036H20.6667C19.8995 9.33036 19.2846 9.39381 18.7669 9.72997C18.2492 10.0661 18 10.7042 18 11.3297V13.9955H21.1862L20.7865 15.9949H18V26.6582H15.3333V15.9949H13.3333V13.9955H15.3333V11.3297C15.3333 10.1079 15.6427 9.09474 16.1875 8.41399C16.7323 7.73323 17.5 7.331 18.6667 7.331Z" fill="white"/>
</svg>
