<svg width="163" height="35" viewBox="0 0 163 35" fill="none" xmlns="http://www.w3.org/2000/svg">
<path fill-rule="evenodd" clip-rule="evenodd" d="M44.5171 32.8713C43.5941 32.8713 42.846 32.107 42.846 31.1642V2.20794C42.846 1.26517 43.5941 0.5 44.5171 0.5C45.4398 0.5 46.188 1.26517 46.188 2.20794V13.937C47.6645 11.4533 50.0085 9.45735 53.8722 9.45735C59.2979 9.45735 62.4671 13.1824 62.4671 18.6374V31.1642C62.4671 32.107 61.719 32.8713 60.796 32.8713C59.873 32.8713 59.124 32.107 59.124 31.1642V19.4794C59.124 15.2225 56.8675 12.5622 52.9165 12.5622C49.0537 12.5622 46.188 17.0236 46.188 20.4481V31.1642C46.188 32.107 45.4398 32.8713 44.5171 32.8713Z" fill="#277BA0"/>
<path fill-rule="evenodd" clip-rule="evenodd" d="M73.0461 25.9948C73.0461 28.9079 75.6387 30.5862 78.6647 30.5862C82.7694 30.5862 86.1409 27.3529 86.1409 24.4055V22.1988C84.4985 21.7133 82.2941 21.2278 79.5714 21.2278C75.3796 21.2278 73.0461 23.0819 73.0461 25.9948ZM72.1338 12.8776C71.8633 12.1207 72.2376 11.2854 72.9711 10.9901C75.009 10.1701 77.1199 9.66162 79.7876 9.66162C85.8815 9.66162 89.2959 12.8404 89.2959 18.8432V31.1595C89.2959 32.0617 88.58 32.7929 87.6968 32.7929C86.8135 32.7929 86.0977 32.0617 86.0977 31.1595V29.7624C84.5417 31.8371 81.9488 33.2784 78.0164 33.2784C73.8676 33.2784 69.6748 30.8948 69.6748 26.1277C69.6748 21.2717 73.5643 18.7113 79.2261 18.7113C82.0782 18.7113 84.1094 19.1089 86.0977 19.6823V18.8881C86.0977 14.7824 83.6341 12.6635 79.4423 12.6635C77.3848 12.6635 75.6696 13.0936 74.0294 13.7445C73.2687 14.0465 72.4136 13.6604 72.1338 12.8776Z" fill="#277BA0"/>
<path fill-rule="evenodd" clip-rule="evenodd" d="M102.584 26.3861C102.584 29.1698 104.107 30.1856 106.368 30.1856C106.919 30.1856 107.428 30.1329 107.942 30.0134C108.807 29.8106 109.631 30.4918 109.631 31.3947C109.631 31.9803 109.275 32.5063 108.737 32.7167C107.809 33.0784 106.796 33.2782 105.585 33.2782C101.975 33.2782 99.2354 31.4674 99.2354 26.8281V13.0431H97.496C96.7266 13.0431 96.1031 12.4098 96.1031 11.6293V11.4533C96.1031 10.6718 96.7266 10.0385 97.496 10.0385H99.2354V4.56027C99.2354 3.77973 99.8589 3.14648 100.627 3.14648H101.191C101.961 3.14648 102.584 3.77973 102.584 4.56027V10.0385H108.325C109.094 10.0385 109.718 10.6718 109.718 11.4533V11.6293C109.718 12.4098 109.094 13.0431 108.325 13.0431H102.584V26.3861Z" fill="#277BA0"/>
<path fill-rule="evenodd" clip-rule="evenodd" d="M126.619 33.2783C120.069 33.2783 115.124 27.8527 115.124 21.4121C115.124 14.9284 120.069 9.45801 126.619 9.45801C130.171 9.45801 132.602 10.7206 134.52 12.4473C135.139 13.005 135.17 13.9791 134.602 14.5904L134.416 14.7899C133.864 15.3849 132.95 15.4155 132.35 14.8702C130.818 13.4739 129.039 12.4578 126.576 12.4578C122.021 12.4578 118.551 16.3839 118.551 21.3243C118.551 26.3086 122.107 30.2346 126.793 30.2346C129.168 30.2346 131.095 29.2328 132.698 27.784C133.264 27.2721 134.125 27.2941 134.678 27.8213C135.296 28.4116 135.303 29.4144 134.685 30.0044C132.644 31.9566 130.173 33.2783 126.619 33.2783Z" fill="#277BA0"/>
<path fill-rule="evenodd" clip-rule="evenodd" d="M144.911 32.9118C143.991 32.9118 143.245 32.1477 143.245 31.2052V2.25679C143.245 1.31427 143.991 0.549316 144.911 0.549316C145.832 0.549316 146.578 1.31427 146.578 2.25679V13.9826C148.05 11.4996 150.388 9.50421 154.242 9.50421C159.653 9.50421 162.814 13.2282 162.814 18.6818V31.2052C162.814 32.1477 162.068 32.9118 161.147 32.9118C160.227 32.9118 159.48 32.1477 159.48 31.2052V19.5235C159.48 15.2678 157.229 12.6082 153.288 12.6082C149.436 12.6082 146.578 17.0683 146.578 20.4919V31.2052C146.578 32.1477 145.832 32.9118 144.911 32.9118Z" fill="#277BA0"/>
<path fill-rule="evenodd" clip-rule="evenodd" d="M23.0665 22.2979C23.0703 22.2922 23.075 22.2874 23.0788 22.2816C21.9446 20.983 21.2548 19.2736 21.2548 17.4007C21.2548 15.5259 21.9455 13.8164 23.0806 12.5168C23.0759 12.5101 23.0713 12.5044 23.0665 12.4987L27.4681 8.02191C27.4831 8.00758 27.4982 7.99228 27.5131 7.97698L27.5988 7.89004L27.5911 7.88334C27.7407 7.68555 27.8298 7.43902 27.8298 7.1705C27.8298 6.52263 27.313 5.99707 26.6751 5.99707C26.38 5.99707 26.1102 6.11078 25.9063 6.29712L25.5924 6.60768L21.4324 10.8379C21.4268 10.8341 21.4221 10.8293 21.4164 10.8255C20.1394 11.9779 18.4601 12.6793 16.6183 12.6793C14.7765 12.6793 13.0973 11.9779 11.8202 10.8255C11.8136 10.8303 11.8071 10.836 11.8005 10.8408L7.4149 6.38217C7.39986 6.36689 7.67802 6.64876 7.66205 6.63348L7.57653 6.54652L7.56996 6.55417C7.37638 6.40224 6.84073 6.01428 6.57763 6.01428C5.93957 6.01428 5.42273 6.53984 5.42273 7.18771C5.42273 7.4887 5.5355 7.76295 5.71875 7.9703L6.0063 8.27226L10.1673 12.5025C10.1635 12.5082 10.1588 12.513 10.1551 12.5187C11.2884 13.8173 11.9771 15.5259 11.9771 17.3978C11.9771 19.2707 11.2884 20.9783 10.1551 22.2769C10.1588 22.2826 10.1635 22.2883 10.1673 22.2931L5.68868 26.8473L5.69337 26.8511C5.51484 27.0584 5.40582 27.329 5.40582 27.625C5.40582 28.2739 5.92266 28.7995 6.55978 28.7995C6.89054 28.7995 7.18749 28.6571 7.39798 28.4316L11.8005 23.9548C11.8071 23.9596 11.8136 23.9653 11.8202 23.9711C13.0973 22.8187 14.7765 22.1173 16.6183 22.1173C18.4601 22.1173 20.1394 22.8187 21.4164 23.9711C21.4221 23.9663 21.4268 23.9625 21.4324 23.9577L25.601 28.1964L25.911 28.5022C26.1139 28.6847 26.38 28.7957 26.6712 28.7957C27.3092 28.7957 27.8261 28.2701 27.8261 27.6213C27.8261 27.286 27.687 26.984 27.4643 26.7698L23.0665 22.2979Z" fill="#F9D10D"/>
<path fill-rule="evenodd" clip-rule="evenodd" d="M14.6157 3.85927C14.6157 1.89379 15.6191 0.5 16.6178 0.5C17.6156 0.5 18.62 1.89379 18.62 3.85927C18.62 5.82478 17.6156 7.21857 16.6178 7.21857C15.6191 7.21857 14.6157 5.82478 14.6157 3.85927Z" fill="#F9D10D"/>
<path fill-rule="evenodd" clip-rule="evenodd" d="M18.62 31.1404C18.62 33.106 17.6165 34.4998 16.6178 34.4998C15.6201 34.4998 14.6157 33.106 14.6157 31.1404C14.6157 29.175 15.6201 27.7812 16.6178 27.7812C17.6165 27.7812 18.62 29.175 18.62 31.1404Z" fill="#F9D10D"/>
<path fill-rule="evenodd" clip-rule="evenodd" d="M30.1322 15.3623C32.0653 15.3623 33.4359 16.3827 33.4359 17.3982C33.4359 18.4128 32.0653 19.4342 30.1322 19.4342C28.1995 19.4342 26.8288 18.4128 26.8288 17.3982C26.8288 16.3827 28.1995 15.3623 30.1322 15.3623Z" fill="#F9D10D"/>
<path fill-rule="evenodd" clip-rule="evenodd" d="M3.30354 19.4342C1.37066 19.4342 0 18.4138 0 17.3982C0 16.3837 1.37066 15.3623 3.30354 15.3623C5.23643 15.3623 6.6071 16.3837 6.6071 17.3982C6.6071 18.4138 5.23643 19.4342 3.30354 19.4342Z" fill="#F9D10D"/>
</svg>
