<svg width="28" height="28" viewBox="0 0 28 28" fill="none" xmlns="http://www.w3.org/2000/svg">
<path d="M3.33333 0C1.50032 0 0 1.50032 0 3.33333V24.6667C0 26.4997 1.50032 28 3.33333 28H24.6667C26.4997 28 28 26.4997 28 24.6667V3.33333C28 1.50032 26.4997 0 24.6667 0H3.33333ZM3.33333 1.33333H24.6667C25.779 1.33333 26.6667 2.22101 26.6667 3.33333V24.6667C26.6667 25.779 25.779 26.6667 24.6667 26.6667H3.33333C2.22101 26.6667 1.33333 25.779 1.33333 24.6667V3.33333C1.33333 2.22101 2.22101 1.33333 3.33333 1.33333ZM6.66667 4.67448C5.93652 4.67448 5.27948 4.89272 4.79297 5.30208C4.30646 5.71145 4.00781 6.32301 4.00781 6.97786C4.00781 8.22265 5.08752 9.19307 6.46094 9.28906L6.46354 9.29037C6.52899 9.31267 6.59753 9.32454 6.66667 9.32552C8.18201 9.32552 9.32552 8.26406 9.32552 6.97786C9.3254 6.96614 9.32497 6.95441 9.32422 6.94271C9.25638 5.67589 8.12696 4.67448 6.66667 4.67448ZM6.66667 5.99219C7.59482 5.99219 7.96131 6.40669 8.0013 6.99479C7.9932 7.56562 7.64006 8.00781 6.66667 8.00781C5.74306 8.00781 5.32552 7.53482 5.32552 6.97786C5.32552 6.69939 5.42714 6.48953 5.64063 6.3099C5.85411 6.13026 6.19681 5.99219 6.66667 5.99219ZM4.66667 10C4.48986 10 4.3203 10.0703 4.19528 10.1953C4.07026 10.3203 4.00002 10.4899 4 10.6667V23.3333C4.00002 23.5101 4.07026 23.6797 4.19528 23.8047C4.3203 23.9297 4.48986 24 4.66667 24H8.66667C8.84347 24 9.01303 23.9297 9.13805 23.8047C9.26307 23.6797 9.33332 23.5101 9.33333 23.3333V19.4232V10.6667C9.33332 10.4899 9.26307 10.3203 9.13805 10.1953C9.01303 10.0703 8.84347 10 8.66667 10H4.66667ZM10.6667 10C10.4899 10 10.3203 10.0703 10.1953 10.1953C10.0703 10.3203 10 10.4899 10 10.6667V23.3333C10 23.5101 10.0703 23.6797 10.1953 23.8047C10.3203 23.9297 10.4899 24 10.6667 24H14.6667C14.8435 24 15.013 23.9297 15.1381 23.8047C15.2631 23.6797 15.3333 23.5101 15.3333 23.3333V16.6667C15.3333 16.1136 15.4843 15.5634 15.75 15.2031C16.0157 14.8429 16.351 14.6267 16.9883 14.638C17.6454 14.6493 17.9933 14.8744 18.2565 15.2279C18.5197 15.5813 18.6667 16.1111 18.6667 16.6667V23.3333C18.6667 23.5101 18.7369 23.6797 18.8619 23.8047C18.987 23.9297 19.1565 24 19.3333 24H23.3333C23.5101 24 23.6797 23.9297 23.8047 23.8047C23.9297 23.6797 24 23.5101 24 23.3333V16.1745C24 14.2001 23.4152 12.6362 22.4128 11.5781C21.4103 10.52 20.0161 10 18.5417 10C17.1403 10 16.0739 10.4699 15.3333 10.9492V10.6667C15.3333 10.4899 15.2631 10.3203 15.1381 10.1953C15.013 10.0703 14.8435 10 14.6667 10H10.6667ZM5.33333 11.3333H8V19.4232V22.6667H5.33333V11.3333ZM11.3333 11.3333H14V12.3737C14 12.5135 14.044 12.6497 14.1257 12.7632C14.2074 12.8766 14.3227 12.9615 14.4553 13.0058C14.5879 13.0501 14.731 13.0517 14.8645 13.0102C14.998 12.9688 15.1151 12.8864 15.1992 12.7747C15.1992 12.7747 16.2461 11.3333 18.5417 11.3333C19.7106 11.3333 20.7129 11.7217 21.4453 12.4948C22.1777 13.2679 22.6667 14.4588 22.6667 16.1745V22.6667H20V16.6667C20 15.8889 19.8136 15.0847 19.3268 14.431C18.84 13.7772 18.0212 13.3221 17.0117 13.3047C15.997 13.2867 15.165 13.7513 14.6771 14.4128C14.1892 15.0742 14 15.8864 14 16.6667V22.6667H11.3333V11.3333Z" fill="white"/>
</svg>
