<svg width="45" height="44" viewBox="0 0 45 44" fill="none" xmlns="http://www.w3.org/2000/svg">
<rect x="1" y="0.5" width="43" height="43" rx="21.5" stroke="#19569D"/>
<path d="M32.1429 20.9822H16.4705L25.8509 12.8394C26.0009 12.7081 25.9098 12.4644 25.7116 12.4644H23.3411C23.2366 12.4644 23.1375 12.5019 23.0598 12.5688L12.9375 21.3519C12.8448 21.4322 12.7704 21.5316 12.7195 21.6432C12.6685 21.7548 12.6422 21.876 12.6422 21.9987C12.6422 22.1214 12.6685 22.2427 12.7195 22.3543C12.7704 22.4659 12.8448 22.5652 12.9375 22.6456L23.1187 31.4822C23.1589 31.517 23.2071 31.5358 23.258 31.5358H25.7089C25.9071 31.5358 25.9982 31.2894 25.8482 31.1608L16.4705 23.0179H32.1429C32.2607 23.0179 32.3571 22.9215 32.3571 22.8036V21.1965C32.3571 21.0786 32.2607 20.9822 32.1429 20.9822Z" fill="#14437B"/>
</svg>
