<svg width="40" height="37" viewBox="0 0 40 37" fill="none" xmlns="http://www.w3.org/2000/svg">
<ellipse cx="19.0191" cy="15.3331" rx="2.98651" ry="3.04014" fill="#19569D"/>
<ellipse cx="34.3962" cy="15.3606" rx="1.80763" ry="1.84009" fill="#19569D"/>
<ellipse cx="10.4254" cy="30.0015" rx="2.0434" ry="2.0801" fill="#19569D"/>
<ellipse cx="6.88884" cy="4.64019" rx="1.49326" ry="1.52007" fill="#19569D"/>
<path fill-rule="evenodd" clip-rule="evenodd" d="M9.15968 8.68433L9.17288 8.67479L11.8204 11.7374C11.8179 11.7411 11.8155 11.7448 11.813 11.7485L13.6855 12.6226C14.1738 11.8923 14.9185 11.3048 15.8191 10.9395C16.7197 10.5742 17.7327 10.4486 18.7214 10.5798C19.7101 10.711 20.6268 11.0927 21.3476 11.6732C22.0685 12.2537 22.5587 13.0051 22.7522 13.8258L24.8567 13.4795C24.5784 12.2987 23.8731 11.2177 22.8361 10.3826C21.799 9.54743 20.4802 8.9984 19.0578 8.80964C17.6355 8.62087 16.178 8.80147 14.8824 9.32703C13.9358 9.711 13.1089 10.2656 12.4582 10.9463L9.91242 8.00141C10.3712 7.47957 10.7089 6.85356 10.8938 6.16943C11.1686 5.15218 11.0885 4.06938 10.667 3.10554C10.2455 2.1417 9.5087 1.35645 8.58221 0.883587C7.65572 0.410726 6.59683 0.279511 5.58595 0.512299C4.57507 0.745087 3.67476 1.32747 3.03842 2.16023C2.40208 2.99299 2.06907 4.02459 2.09615 5.07926C2.12322 6.13393 2.62759 7.20248 3.30579 8.00026C3.98399 8.79805 6.18169 9.74163 7.20313 9.92035L6.0205 8.24045C5.27496 8.11 4.59693 7.72045 4.10192 7.13815C3.60691 6.55586 3.32555 5.81686 3.30579 5.04708C3.28603 4.27729 3.52908 3.52434 3.99354 2.91652C4.458 2.30871 5.11512 1.88363 5.85294 1.71372C6.59077 1.54382 7.36364 1.63959 8.03987 1.98472C8.7161 2.32986 9.25385 2.903 9.5615 3.60649C9.86914 4.30998 9.92765 5.1003 9.72704 5.84278C9.58108 6.38301 9.30452 6.8736 8.92671 7.27196L8.52798 7.62914C8.506 7.64582 8.48379 7.66222 8.46135 7.67836L8.46583 7.68482L8.382 7.75992L9.07224 8.55837L9.15968 8.68433Z" fill="#4A90E2"/>
<path fill-rule="evenodd" clip-rule="evenodd" d="M29.2276 15.3798L29.2256 15.3959L25.2892 15.3043C25.2866 15.2933 25.2839 15.2823 25.2812 15.2713L25.2056 15.3023L25.189 15.3019L25.1888 15.3092L23.4347 16.0297C23.641 16.8725 23.5779 17.8036 23.2537 18.6973C22.9296 19.591 22.3602 20.4042 21.6223 21.027C20.8845 21.6498 20.0138 22.0522 19.1278 22.1799C18.2419 22.3076 17.3834 22.1544 16.6684 21.741L15.5468 23.4879C16.5755 24.0826 17.8106 24.303 19.0851 24.1193C20.3597 23.9356 21.6123 23.3567 22.6738 22.4607C23.7354 21.5647 24.5546 20.3948 25.0209 19.1091C25.3565 18.1837 25.4976 17.2305 25.4397 16.3168L29.2107 16.4045C29.2767 17.1022 29.5001 17.7797 29.8694 18.3821C30.4181 19.2772 31.2547 19.9509 32.2366 20.2885C33.2185 20.626 34.2851 20.6066 35.2545 20.2334C36.2239 19.8602 37.0362 19.1564 37.553 18.2419C38.0698 17.3274 38.2592 16.2588 38.0887 15.2181C37.9183 14.1774 37.3987 13.2291 36.6184 12.5347C35.8381 11.8403 34.4351 11.4736 33.3992 11.4407C32.3633 11.4078 30.4817 12.434 29.6604 13.0775L31.6754 13.3305C32.2748 12.8608 33.0157 12.6172 33.7718 12.6411C34.5279 12.6651 35.2524 12.9553 35.822 13.4621C36.3915 13.9689 36.7708 14.6611 36.8951 15.4206C37.0195 16.1802 36.8814 16.9602 36.5042 17.6277C36.1269 18.2952 35.534 18.8088 34.8265 19.0812C34.1189 19.3536 33.3405 19.3678 32.6238 19.1214C31.9071 18.875 31.2965 18.3833 30.896 17.73C30.604 17.2537 30.4369 16.713 30.4056 16.1591L30.4176 15.6253C30.4205 15.5964 30.4238 15.5675 30.4275 15.5387L30.4196 15.5376L30.4221 15.4237L29.3751 15.3993L29.2276 15.3798Z" fill="#4A90E2"/>
<path fill-rule="evenodd" clip-rule="evenodd" d="M12.548 26.4201C12.4968 26.3849 12.4449 26.3507 12.3925 26.3176L14.1422 22.9524C14.2476 23.0189 14.3546 23.0816 14.4633 23.1407L15.1593 21.1734C14.6055 20.8724 14.1095 20.4308 13.7065 19.8798C13.3034 19.3288 13.0031 18.6819 12.8267 17.9847C12.6503 17.2875 12.6022 16.5571 12.6858 15.8451C12.7694 15.1332 12.9826 14.457 13.3103 13.8646L11.8033 12.6259C11.3318 13.4783 11.025 14.451 10.9048 15.4752C10.7846 16.4995 10.8538 17.5502 11.1075 18.5533C11.3612 19.5563 11.7933 20.487 12.3732 21.2797C12.6631 21.6761 12.9865 22.0331 13.3369 22.3451L11.4991 25.8798C10.858 25.6468 10.1668 25.5547 9.4728 25.6158C8.3791 25.7121 7.34614 26.183 6.54992 26.9482C5.75371 27.7135 5.24352 28.7257 5.10626 29.8125C4.96901 30.8993 5.21319 31.9934 5.79721 32.9084C6.38123 33.8233 7.26894 34.5026 8.30909 34.8303C9.34924 35.1581 10.4775 35.1141 11.5016 34.7058C12.5256 34.2976 13.4438 33.4403 13.9869 32.4814C14.53 31.5225 14.6326 28.9812 14.4481 27.9069L13.2181 29.6835C13.3527 30.4676 13.2096 31.2787 12.8132 31.9786C12.4168 32.6785 11.7916 33.2239 11.0442 33.5218C10.2967 33.8198 9.47323 33.8519 8.71404 33.6127C7.95485 33.3735 7.30692 32.8777 6.88066 32.2099C6.45439 31.5421 6.27617 30.7435 6.37634 29.9503C6.47652 29.1571 6.84891 28.4182 7.43005 27.8597C8.01119 27.3012 8.76514 26.9575 9.56342 26.8872C10.1254 26.8377 10.6848 26.9259 11.1946 27.1393L11.621 27.3543C11.6845 27.3922 11.7468 27.4321 11.8079 27.4742L12.548 26.4201Z" fill="#4A90E2"/>
</svg>
