<svg width="45" height="44" viewBox="0 0 45 44" fill="none" xmlns="http://www.w3.org/2000/svg">
<rect x="1" y="0.5" width="43" height="43" rx="21.5" stroke="#19569D"/>
<path d="M32.0625 21.3519L21.9429 12.5688C21.8652 12.5019 21.7661 12.4644 21.6616 12.4644H19.2911C19.0929 12.4644 19.0018 12.7108 19.1518 12.8394L28.5322 20.9822H12.8572C12.7393 20.9822 12.6429 21.0786 12.6429 21.1965V22.8036C12.6429 22.9215 12.7393 23.0179 12.8572 23.0179H28.5295L19.1491 31.1608C18.9991 31.292 19.0902 31.5358 19.2884 31.5358H21.7393C21.7902 31.5358 21.8411 31.517 21.8786 31.4822L32.0625 22.6483C32.1553 22.5676 32.2296 22.4681 32.2806 22.3562C32.3315 22.2444 32.3579 22.123 32.3579 22.0001C32.3579 21.8772 32.3315 21.7557 32.2806 21.6439C32.2296 21.5321 32.1553 21.4325 32.0625 21.3519Z" fill="#19569D"/>
</svg>
