<svg width="168" height="39" viewBox="0 0 168 39" fill="none" xmlns="http://www.w3.org/2000/svg">
<path fill-rule="evenodd" clip-rule="evenodd" d="M68.0252 6.0713C64.3535 2.39211 59.5286 0.5 54.7029 0.5H54.6508C49.8259 0.5 45 2.3396 41.3293 6.0713C33.9871 13.4823 33.9871 25.4133 41.3293 32.8243C48.6718 40.1828 60.6296 40.1828 67.972 32.8243C75.3675 25.4659 75.3675 13.4823 68.0252 6.0713ZM62.6753 27.4631C58.2694 31.8782 51.0841 31.8782 46.6792 27.4631C42.2731 23.0481 42.2731 15.8475 46.6792 11.4325C51.0841 7.01745 58.2694 7.01745 62.6753 11.4325C67.1336 15.8475 67.1336 23.0481 62.6753 27.4631Z" fill="#2D8CFF"/>
<path fill-rule="evenodd" clip-rule="evenodd" d="M107.622 6.0713C103.952 2.39211 99.1261 0.552508 94.3012 0.5C89.4763 0.5 84.6504 2.3396 80.98 6.0713C73.6375 13.4823 73.6375 25.4133 80.98 32.8243C88.3222 40.1828 100.28 40.1828 107.622 32.8243C114.966 25.4659 114.966 13.4823 107.622 6.0713ZM102.274 27.4631C97.8676 31.8782 90.6826 31.8782 86.2764 27.4631C81.8716 23.0481 81.8716 15.8475 86.2764 11.4325C90.6826 7.01745 97.8676 7.01745 102.274 11.4325C106.731 15.8475 106.731 23.0481 102.274 27.4631Z" fill="#2D8CFF"/>
<path fill-rule="evenodd" clip-rule="evenodd" d="M7.55239 38.2908L9.44055 38.3961H37.7099L37.6046 36.5038C37.3421 33.4028 35.1391 31.1426 32.0456 30.9325L30.1571 30.8272H13.1642L35.8214 8.17409L35.7163 6.28188C35.5589 3.12828 33.2516 0.868212 30.1571 0.710586L28.2685 0.605469H0L0.10489 2.49758C0.36717 5.59857 2.56989 7.91126 5.66434 8.06899L7.55239 8.17409H24.5448L1.88814 30.8798L1.99304 32.7721C2.15033 35.8205 4.40566 38.0807 7.55239 38.2908Z" fill="#2D8CFF"/>
<path fill-rule="evenodd" clip-rule="evenodd" d="M136.626 11.9046C137.256 13.0083 137.465 14.2698 137.517 15.6889L137.622 17.5811V30.8262L137.728 32.7183C137.937 35.8192 140.192 38.0794 143.287 38.2897L145.175 38.3948V17.5811L145.279 15.6889C145.332 14.2698 145.542 13.0083 146.224 11.9046C147.535 9.64449 149.948 8.17286 152.727 8.17286C155.507 8.17286 157.971 9.69711 159.283 11.9572C159.912 13.061 160.122 14.375 160.175 15.7415L160.28 17.6336V30.8787L160.385 32.7708C160.594 35.872 162.849 38.1844 165.944 38.3422L167.831 38.4473V17.6862V15.794C167.831 7.43703 161.066 0.656738 152.727 0.656738C148.217 0.656738 144.178 2.65406 141.398 5.75506C138.671 2.60145 134.581 0.656738 130.069 0.656738C126.923 0.656738 124.039 1.60289 121.626 3.23225C120.157 1.60289 116.905 0.656738 115.018 0.656738V38.4998L116.905 38.3948C120.052 38.1844 122.36 35.977 122.466 32.8235L122.57 30.9312V17.6862L122.675 15.794C122.727 14.375 122.938 13.1134 123.619 12.0097C124.93 9.7496 127.342 8.22538 130.123 8.22538C132.902 8.12024 135.315 9.64449 136.626 11.9046Z" fill="#2D8CFF"/>
</svg>
